<svg width="25" height="24" viewBox="0 0 25 24" fill="none" xmlns="http://www.w3.org/2000/svg">
<path d="M11.3167 23.6792L8.25 20.9964H2.91667C2.18333 20.9964 1.55533 20.7681 1.03267 20.3116C0.510889 19.8544 0.25 19.305 0.25 18.6634V2.33293C0.25 1.69137 0.510889 1.14197 1.03267 0.684714C1.55533 0.228238 2.18333 0 2.91667 0H21.5833C22.3167 0 22.9447 0.228238 23.4673 0.684714C23.9891 1.14197 24.25 1.69137 24.25 2.33293V18.6634C24.25 19.305 23.9891 19.8544 23.4673 20.3116C22.9447 20.7681 22.3167 20.9964 21.5833 20.9964H16.25L13.1833 23.6792C12.9389 23.8931 12.6278 24 12.25 24C11.8722 24 11.5611 23.8931 11.3167 23.6792ZM14.3167 12.3062L17.55 11.0231C17.8167 10.9259 17.95 10.7509 17.95 10.4982C17.95 10.2454 17.8167 10.0705 17.55 9.97327L14.3167 8.69016L12.85 5.86148C12.7389 5.62819 12.5389 5.51154 12.25 5.51154C11.9611 5.51154 11.7611 5.62819 11.65 5.86148L10.1833 8.69016L6.95 9.97327C6.68333 10.0705 6.55 10.2454 6.55 10.4982C6.55 10.7509 6.68333 10.9259 6.95 11.0231L10.1833 12.3062L11.65 15.1349C11.7611 15.3682 11.9611 15.4848 12.25 15.4848C12.5389 15.4848 12.7389 15.3682 12.85 15.1349L14.3167 12.3062Z" fill="#818A99"/>
</svg>
