<svg width="128" height="33" viewBox="0 0 128 33" fill="none" xmlns="http://www.w3.org/2000/svg">
<path d="M6.36231 32.2306H0V8.72021H6.36231V11.114C8.00556 9.14767 10.9971 8.07902 13.0617 8.07902H13.6094C18.4549 8.07902 21.6993 12.0117 21.6993 17.8679V32.2306H15.3791V18.0816C15.3791 14.9184 13.8201 13.1658 11.6713 13.1658C9.94374 13.1658 7.83702 14.8756 6.36231 17.3977V32.2306Z" fill="black"/>
<path d="M42.6286 23.3821L48.401 25.7759C46.5892 30.2642 42.4601 33 36.9404 33C29.3984 33 24.4265 27.956 24.4265 20.4326C24.4265 12.9093 29.3984 7.86529 36.9404 7.86529C45.0303 7.86529 49.8336 13.8497 48.9066 22.7837H30.9995C31.7158 25.9041 33.9067 27.8705 36.8983 27.8705C39.7213 27.8705 41.7859 26.1606 42.6286 23.3821ZM31.9264 15.5596L36.9404 18.6801L42.0808 15.5596L36.9404 12.4819L31.9264 15.5596Z" fill="black"/>
<path d="M69.333 23.3821L75.1054 25.7759C73.2936 30.2642 69.1644 33 63.6448 33C56.1027 33 51.1309 27.956 51.1309 20.4326C51.1309 12.9093 56.1027 7.86529 63.6448 7.86529C71.7346 7.86529 76.538 13.8497 75.611 22.7837H57.7039C58.4201 25.9041 60.6111 27.8705 63.6027 27.8705C66.4257 27.8705 68.4903 26.1606 69.333 23.3821ZM58.6308 15.5596L63.6448 18.6801L68.7852 15.5596L63.6448 12.4819L58.6308 15.5596Z" fill="black"/>
<path d="M88.8745 32.5725C82.6386 32.5725 77.751 28.8964 77.8774 20.6036C77.9617 12.5674 82.5122 7.99352 88.6638 8.29275C91.4447 8.42098 93.6778 9.53238 94.8997 10.9003V0.512952H101.22V32.2306H94.8997V30.136C93.5514 31.6321 91.2762 32.5725 88.8745 32.5725ZM96.8379 20.1762C91.9503 20.1762 88.6217 16.6282 88.6217 11.3705C88.6217 16.6282 85.2931 20.1762 80.3633 20.1762C85.3773 20.1762 88.706 23.7241 88.6217 28.8964C88.706 23.7241 92.0346 20.1762 96.8379 20.1762Z" fill="black"/>
<path d="M107.84 6.96762L104.511 3.46243L107.84 0L111.211 3.46243L107.84 6.96762ZM104.596 32.2306V8.72021H110.916V32.2306H104.596Z" fill="black"/>
<path d="M116.329 23.8096V13.8497H113.211V8.72021H116.329V0.76943H122.649V8.72021H127.452V13.8497H122.649V24.0233C122.649 25.4767 123.07 26.7591 124.419 27.1865C125.093 27.4003 126.357 27.4003 127.663 26.93L128 32.2733C125.598 33 122.733 33.2137 120.289 32.1878C117.382 30.9482 116.329 28.3834 116.329 23.8096Z" fill="black"/>
</svg>
