<svg width="172" height="45" viewBox="0 0 172 45" fill="none" xmlns="http://www.w3.org/2000/svg">
<path d="M9.39509 43.108H0.939087V12.308H9.39509V15.444C11.5791 12.868 15.5551 11.468 18.2991 11.468H19.0271C25.4671 11.468 29.7791 16.62 29.7791 24.292V43.108H21.3791V24.572C21.3791 20.428 19.3071 18.132 16.4511 18.132C14.1551 18.132 11.3551 20.372 9.39509 23.676V43.108Z" fill="white"/>
<path d="M57.5958 31.516L65.2678 34.652C62.8598 40.532 57.3718 44.116 50.0358 44.116C40.0118 44.116 33.4038 37.508 33.4038 27.652C33.4038 17.796 40.0118 11.188 50.0358 11.188C60.7878 11.188 67.1718 19.028 65.9398 30.732H42.1398C43.0918 34.82 46.0038 37.396 49.9798 37.396C53.7318 37.396 56.4758 35.156 57.5958 31.516ZM43.3718 21.268L50.0358 25.356L56.8678 21.268L50.0358 17.236L43.3718 21.268Z" fill="white"/>
<path d="M93.088 31.516L100.76 34.652C98.352 40.532 92.864 44.116 85.528 44.116C75.504 44.116 68.896 37.508 68.896 27.652C68.896 17.796 75.504 11.188 85.528 11.188C96.28 11.188 102.664 19.028 101.432 30.732H77.632C78.584 34.82 81.496 37.396 85.472 37.396C89.224 37.396 91.968 35.156 93.088 31.516ZM78.864 21.268L85.528 25.356L92.36 21.268L85.528 17.236L78.864 21.268Z" fill="white"/>
<path d="M119.06 43.556C110.772 43.556 104.276 38.74 104.444 27.876C104.556 17.348 110.604 11.356 118.78 11.748C122.476 11.916 125.444 13.372 127.068 15.164V1.55603H135.468V43.108H127.068V40.364C125.276 42.324 122.252 43.556 119.06 43.556ZM129.644 27.316C123.148 27.316 118.724 22.668 118.724 15.78C118.724 22.668 114.3 27.316 107.748 27.316C114.412 27.316 118.836 31.964 118.724 38.74C118.836 31.964 123.26 27.316 129.644 27.316Z" fill="white"/>
<path d="M144.267 10.012L139.843 5.42003L144.267 0.884033L148.747 5.42003L144.267 10.012ZM139.955 43.108V12.308H148.355V43.108H139.955Z" fill="white"/>
<path d="M155.549 32.076V19.028H151.405V12.308H155.549V1.89203H163.949V12.308H170.333V19.028H163.949V32.356C163.949 34.26 164.509 35.94 166.301 36.5C167.197 36.78 168.877 36.78 170.613 36.164L171.061 43.164C167.869 44.116 164.061 44.396 160.813 43.052C156.949 41.428 155.549 38.068 155.549 32.076Z" fill="white"/>
</svg>
