<svg width="25" height="24" viewBox="0 0 25 24" fill="none" xmlns="http://www.w3.org/2000/svg">
<path d="M14.75 20C14.75 20.55 14.5544 21.0211 14.1631 21.4131C13.7711 21.8044 13.3 22 12.75 22C12.2 22 11.7292 21.8044 11.3379 21.4131C10.9459 21.0211 10.75 20.55 10.75 20H14.75ZM12.75 2C13.1667 2 13.5202 2.14648 13.8115 2.43848C14.1035 2.72981 14.25 3.08333 14.25 3.5V4.2002C15.5832 4.5335 16.6667 5.23704 17.5 6.31152C18.3333 7.38686 18.75 8.61667 18.75 10V17H20.75V19H4.75V17H6.75V10C6.75 8.61667 7.16667 7.38686 8 6.31152C8.83329 5.23704 9.91681 4.5335 11.25 4.2002V3.5C11.25 3.08333 11.3965 2.72981 11.6885 2.43848C11.9798 2.14648 12.3333 2 12.75 2Z" fill="#818A99"/>
</svg>
