<svg width="25" height="24" viewBox="0 0 25 24" fill="none" xmlns="http://www.w3.org/2000/svg">
<path d="M12.25 13C13.35 13 14.4334 13.1287 15.5 13.3867C16.5667 13.6454 17.6171 14.0331 18.6504 14.5498C19.1335 14.7997 19.5203 15.1623 19.8115 15.6367C20.1035 16.1121 20.25 16.6335 20.25 17.2002V20H4.25V17.2002C4.25 16.6335 4.39648 16.1121 4.68848 15.6367C4.97973 15.1623 5.36652 14.7997 5.84961 14.5498C6.88294 14.0331 7.93333 13.6454 9 13.3867C10.0666 13.1287 11.15 13 12.25 13ZM12.25 4C13.35 4 14.2919 4.39147 15.0752 5.1748C15.8585 5.95814 16.25 6.9 16.25 8C16.25 9.1 15.8585 10.0419 15.0752 10.8252C14.2919 11.6085 13.35 12 12.25 12C11.15 12 10.2081 11.6085 9.4248 10.8252C8.64147 10.0419 8.25 9.1 8.25 8C8.25 6.9 8.64147 5.95814 9.4248 5.1748C10.2081 4.39147 11.15 4 12.25 4Z" fill="#818A99"/>
</svg>
