<svg width="202" height="151" viewBox="0 0 202 151" fill="none" xmlns="http://www.w3.org/2000/svg">
<path d="M152.9 46.3176L152.914 47.7727C153.206 62.7202 158 75.1702 166.265 83.9573C174.793 93.0245 187.055 98.2336 202 98.2336V99.2336C187.053 99.2336 174.79 104.378 166.263 113.379C157.999 122.101 153.206 134.486 152.914 149.43L152.9 150.884H151.9C151.9 135.293 146.936 122.386 138.306 113.381C129.677 104.378 117.346 99.2336 102.533 99.2336V98.2336C117.345 98.2336 129.676 93.0252 138.305 83.9553C146.936 74.8832 151.9 61.9089 151.9 46.3176H152.9ZM113.7 1.38403V40.1985C113.7 89.4846 74.7613 128.474 8.73828 138.075L8.26758 138.144L8.17578 137.676L1.50977 103.619L1.40918 103.11L1.92285 103.03C47.6561 95.8665 72.7001 70.4534 72.7002 40.1985V1.38403H113.7Z" fill="white" stroke="white"/>
</svg>
